<svg width="107" height="32" viewBox="0 0 107 32" fill="none" xmlns="http://www.w3.org/2000/svg">
	<g clip-path="url(#clip0_431_40)">
		<path fill-rule="evenodd" clip-rule="evenodd" d="M57.8433 11.4553L55.2096 26.1296C56.3552 27.0616 57.9111 27.6139 59.8622 27.6139C62.2088 27.6139 64.6162 26.6395 66.0486 24.6906L65.5916 27.0958H69.5837L72.6921 10.3658H68.6999L68.2427 12.8011C67.7552 11.4615 66.2009 9.84766 63.1535 9.84766C61.2778 9.84766 59.436 10.4217 57.8433 11.4553V11.4553ZM56.9978 18.7765C57.4548 16.1848 59.7709 13.5624 63.0012 13.5624C65.4087 13.5624 66.7191 14.9345 67.1153 16.5201C67.3286 17.252 67.3286 18.0752 67.1457 18.868C66.9324 19.6913 66.5971 20.4839 66.0792 21.2158C65.0431 22.7404 63.3364 23.8991 61.1119 23.8991C57.5158 23.8991 56.6016 20.8803 56.9672 18.8071L56.9978 18.7765V18.7765Z" fill="currentColor" />
		<path d="M73.5495 27.0959H77.3901L77.8473 24.6907C78.4265 26.3351 80.2249 27.614 82.8461 27.614C87.4182 27.614 91.9876 24.3256 93.0228 18.6546C94.1199 12.7405 90.2823 9.84775 86.3209 9.84775C84.7968 9.84775 82.2975 10.3959 80.2553 12.4358L80.6211 10.4263L81.7184 4.54419H77.7254L73.5495 27.0959V27.0959ZM89.0337 18.7156C88.5459 21.3075 86.199 23.8992 82.9374 23.8992C79.92 23.8992 78.4265 21.5208 78.9447 18.7156C79.4322 16.0018 81.8401 13.5625 84.9493 13.5625C87.8754 13.5625 89.5514 15.9408 89.0337 18.6852V18.7156Z" fill="currentColor" />
		<path d="M13.621 0.703125H10.2072C7.92121 0.703125 5.81792 1.95124 5.29975 4.78386L4.11214 11.1552C3.71613 13.3196 1.70639 14.0513 0.762031 14.1427L0 18.2886C0.975364 18.5325 2.65028 19.1422 2.28487 21.0932L1.12765 27.3428C0.579154 30.2058 2.22416 31.4539 4.50794 31.4539H7.92121L8.4697 28.3791H6.79329C5.17806 28.3791 5.17806 27.4036 5.4523 26.0014L6.61034 19.752C7.03714 17.435 5.33034 16.4901 4.17312 16.2461C4.69068 15.9719 7.49434 14.9963 7.98212 12.3137L9.14043 6.12524C9.38408 4.81424 9.74997 3.77769 11.3654 3.77769H13.0418L13.621 0.703125V0.703125Z" fill="#2F86E5" />
		<path d="M34.0128 10.3658H30.0205L29.5635 12.8011C29.0757 11.4615 27.5216 9.84766 24.4743 9.84766C19.7812 9.84766 15.3015 13.4406 14.3262 18.7155C13.4424 23.4417 15.8194 27.6139 21.183 27.6139C23.5295 27.6139 25.9369 26.6395 27.3693 24.6906L26.9121 27.0958H30.9042L34.0128 10.3658V10.3658ZM18.3183 18.7765C18.7755 16.1848 21.0916 13.5624 24.3217 13.5624C26.7292 13.5624 28.0395 14.9345 28.4358 16.5201C28.6491 17.252 28.6491 18.0752 28.4664 18.868C28.2531 19.6913 27.9179 20.4839 27.3997 21.2158C26.3635 22.7404 24.6569 23.8991 22.4324 23.8991C18.8365 23.8991 17.9223 20.8803 18.2879 18.8071L18.3183 18.7765V18.7765Z" fill="currentColor" />
		<path d="M34.8698 27.0959H38.8609L43.0346 4.54419H39.0436L34.8698 27.0959Z" fill="currentColor" />
		<path d="M43.8911 27.0959H47.8825L50.4113 13.4407H53.2755L53.8543 10.3659H50.9903L52.0567 4.54419H48.0653L46.9989 10.3659H44.2261L43.6471 13.4407H46.42L43.8911 27.0959Z" fill="currentColor" />
		<path d="M98.4214 3.77769H100.067C101.713 3.77769 101.683 4.81424 101.439 6.12524L100.281 12.3137C99.8234 14.9963 101.5 15.8499 102.657 16.1548C102.231 16.3987 99.3662 17.435 98.909 19.752L97.7507 26.0014C97.4764 27.4036 97.1412 28.3791 95.4952 28.3791H93.8493L93.3008 31.4539H96.7144C98.9699 31.4539 101.043 30.2058 101.591 27.3428L102.749 21.0932C103.114 19.1422 105.002 18.5325 106.098 18.2886L106.861 14.1426C105.977 14.0513 104.18 13.3196 104.576 11.1552L105.763 4.78386C106.281 1.95124 104.667 0.703125 102.414 0.703125H99.0005L98.4215 3.77769H98.4214Z" fill="#2F86E5" />
	</g>
	<defs>
		<clipPath id="clip0_431_40">
			<rect width="106.667" height="32" fill="currentColor" />
		</clipPath>
	</defs>
</svg>
