<svg width="32" height="32" viewBox="0 0 32 32" fill="none" xmlns="http://www.w3.org/2000/svg">
<rect width="32" height="32" rx="16" fill="white"/>
<path opacity="0.2" d="M15.998 3.0813C13.3834 3.08054 10.8302 3.87294 8.67547 5.35385C6.52077 6.83475 4.86602 8.93447 3.9298 11.3756C2.99358 13.8168 2.81995 16.4845 3.43184 19.0265C4.04373 21.5684 5.41236 23.8649 7.35692 25.6126C8.16717 24.017 9.40341 22.6769 10.9286 21.7409C12.4538 20.8049 14.2084 20.3095 15.998 20.3095C14.9331 20.3095 13.8922 19.9938 13.0069 19.4022C12.1215 18.8106 11.4314 17.9698 11.0239 16.986C10.6165 16.0022 10.5098 14.9197 10.7176 13.8754C10.9253 12.831 11.4381 11.8717 12.191 11.1188C12.944 10.3658 13.9033 9.85307 14.9476 9.64534C15.992 9.4376 17.0745 9.54422 18.0583 9.95171C19.042 10.3592 19.8829 11.0493 20.4744 11.9346C21.066 12.82 21.3818 13.8609 21.3818 14.9257C21.3818 16.3536 20.8146 17.723 19.8049 18.7326C18.7952 19.7423 17.4258 20.3095 15.998 20.3095C17.7875 20.3095 19.5421 20.8049 21.0673 21.7409C22.5925 22.6769 23.8287 24.017 24.639 25.6126C26.5835 23.8649 27.9522 21.5684 28.5641 19.0265C29.176 16.4845 29.0023 13.8168 28.0661 11.3756C27.1299 8.93447 25.4751 6.83475 23.3204 5.35385C21.1657 3.87294 18.6125 3.08054 15.998 3.0813Z" fill="black" fill-opacity="0.8"/>
<path d="M29.9959 16.0024C29.9966 13.6739 29.4165 11.382 28.308 9.33432C27.1996 7.2866 25.5978 5.54775 23.6478 4.27524C21.6978 3.00272 19.4612 2.23676 17.1405 2.04671C14.8197 1.85666 12.4883 2.24853 10.3572 3.18683C8.22617 4.12513 6.36284 5.58022 4.936 7.42031C3.50916 9.2604 2.56388 11.4274 2.18578 13.7249C1.80768 16.0225 2.0087 18.3781 2.77063 20.5784C3.53256 22.7787 4.83134 24.7541 6.54933 26.3259L6.72431 26.4874C9.28331 28.7507 12.5817 30 15.9979 30C19.4142 30 22.7126 28.7507 25.2716 26.4874L25.4466 26.3259C26.8815 25.0164 28.0273 23.4219 28.8107 21.6442C29.5941 19.8666 29.9977 17.945 29.9959 16.0024ZM4.15353 16.0024C4.15282 14.0841 4.61807 12.1942 5.50927 10.4955C6.40047 8.79672 7.69094 7.33985 9.26972 6.25013C10.8485 5.16042 12.6683 4.47049 14.5727 4.23966C16.4771 4.00883 18.4091 4.24402 20.2025 4.925C21.9959 5.60598 23.5971 6.71237 24.8683 8.14903C26.1395 9.58569 27.0428 11.3096 27.5004 13.1726C27.958 15.0355 27.9563 16.9818 27.4954 18.8439C27.0344 20.7061 26.1281 22.4284 24.8543 23.8628C23.6538 22.1217 21.9624 20.777 19.9954 19.9999C21.0504 19.1689 21.8202 18.0299 22.1979 16.7412C22.5755 15.4524 22.5421 14.0781 22.1024 12.8092C21.6627 11.5403 20.8385 10.4399 19.7445 9.66117C18.6504 8.88241 17.3409 8.46393 15.9979 8.46393C14.655 8.46393 13.3455 8.88241 12.2514 9.66117C11.1574 10.4399 10.3332 11.5403 9.89348 12.8092C9.45377 14.0781 9.42041 15.4524 9.79803 16.7412C10.1756 18.0299 10.9455 19.1689 12.0005 19.9999C10.0335 20.777 8.34213 22.1217 7.14155 23.8628C5.21329 21.699 4.14958 18.9007 4.15353 16.0024ZM11.6909 14.9256C11.6909 14.0738 11.9435 13.241 12.4168 12.5328C12.89 11.8245 13.5627 11.2724 14.3497 10.9464C15.1367 10.6204 16.0027 10.5351 16.8382 10.7013C17.6737 10.8675 18.4411 11.2777 19.0435 11.8801C19.6458 12.4824 20.0561 13.2499 20.2222 14.0854C20.3884 14.9208 20.3031 15.7869 19.9771 16.5739C19.6512 17.3609 19.0991 18.0335 18.3908 18.5068C17.6825 18.9801 16.8498 19.2327 15.9979 19.2327C14.8567 19.2291 13.7633 18.7742 12.9563 17.9673C12.1494 17.1603 11.6944 16.0668 11.6909 14.9256ZM8.74324 25.3568C9.52244 24.1397 10.5953 23.1382 11.8631 22.4445C13.1309 21.7508 14.5528 21.3873 15.9979 21.3873C17.4431 21.3873 18.865 21.7508 20.1328 22.4445C21.4006 23.1382 22.4734 24.1397 23.2526 25.3568C21.1784 26.9699 18.6256 27.8457 15.9979 27.8457C13.3702 27.8457 10.8175 26.9699 8.74324 25.3568Z" fill="black" fill-opacity="0.8"/>
</svg>
