<svg width="32" height="32" viewBox="0 0 32 32" fill="none" xmlns="http://www.w3.org/2000/svg">
<rect width="32" height="32" rx="5" fill="white"/>
<path opacity="0.2" d="M23.5 12.25H18.25V7L23.5 12.25Z" fill="black"/>
<path d="M11.5 25C11.5 25.1989 11.421 25.3897 11.2803 25.5303C11.1397 25.671 10.9489 25.75 10.75 25.75H9.25C8.85218 25.75 8.47064 25.592 8.18934 25.3107C7.90804 25.0294 7.75 24.6478 7.75 24.25V21.25C7.75 21.0511 7.82902 20.8603 7.96967 20.7197C8.11032 20.579 8.30109 20.5 8.5 20.5C8.69891 20.5 8.88968 20.579 9.03033 20.7197C9.17098 20.8603 9.25 21.0511 9.25 21.25V24.25H10.75C10.9489 24.25 11.1397 24.329 11.2803 24.4697C11.421 24.6103 11.5 24.8011 11.5 25ZM11.5 6.25H9.25C8.85218 6.25 8.47064 6.40804 8.18934 6.68934C7.90804 6.97064 7.75 7.35218 7.75 7.75V10C7.75 10.1989 7.82902 10.3897 7.96967 10.5303C8.11032 10.671 8.30109 10.75 8.5 10.75C8.69891 10.75 8.88968 10.671 9.03033 10.5303C9.17098 10.3897 9.25 10.1989 9.25 10V7.75H11.5C11.6989 7.75 11.8897 7.67098 12.0303 7.53033C12.171 7.38968 12.25 7.19891 12.25 7C12.25 6.80109 12.171 6.61032 12.0303 6.46967C11.8897 6.32902 11.6989 6.25 11.5 6.25ZM24.25 12.2687V16.75C24.25 16.9489 24.171 17.1397 24.0303 17.2803C23.8897 17.421 23.6989 17.5 23.5 17.5C23.3011 17.5 23.1103 17.421 22.9697 17.2803C22.829 17.1397 22.75 16.9489 22.75 16.75V13H18.25C18.0511 13 17.8603 12.921 17.7197 12.7803C17.579 12.6397 17.5 12.4489 17.5 12.25V7.75H15.25C15.0511 7.75 14.8603 7.67098 14.7197 7.53033C14.579 7.38968 14.5 7.19891 14.5 7C14.5 6.80109 14.579 6.61032 14.7197 6.46967C14.8603 6.32902 15.0511 6.25 15.25 6.25H18.4656L18.5312 6.27812H18.5406L18.5875 6.30625H18.6063L18.6531 6.33437C18.6531 6.34375 18.6625 6.34375 18.6719 6.35313L18.7094 6.38125H18.7281L18.7656 6.41875H18.7844L24.025 11.6688C24.103 11.7431 24.1636 11.8337 24.2025 11.9342C24.2414 12.0347 24.2576 12.1425 24.25 12.25V12.2687ZM19 11.5H21.6906L19 8.80937V11.5ZM23.5 19.75C23.3011 19.75 23.1103 19.829 22.9697 19.9697C22.829 20.1103 22.75 20.3011 22.75 20.5V24.25H22C21.8011 24.25 21.6103 24.329 21.4697 24.4697C21.329 24.6103 21.25 24.8011 21.25 25C21.25 25.1989 21.329 25.3897 21.4697 25.5303C21.6103 25.671 21.8011 25.75 22 25.75H22.75C23.1478 25.75 23.5294 25.592 23.8107 25.3107C24.092 25.0294 24.25 24.6478 24.25 24.25V20.5C24.25 20.3011 24.171 20.1103 24.0303 19.9697C23.8897 19.829 23.6989 19.75 23.5 19.75ZM8.5 18.25C8.69891 18.25 8.88968 18.171 9.03033 18.0303C9.17098 17.8897 9.25 17.6989 9.25 17.5V13.75C9.25 13.5511 9.17098 13.3603 9.03033 13.2197C8.88968 13.079 8.69891 13 8.5 13C8.30109 13 8.11032 13.079 7.96967 13.2197C7.82902 13.3603 7.75 13.5511 7.75 13.75V17.5C7.75 17.6989 7.82902 17.8897 7.96967 18.0303C8.11032 18.171 8.30109 18.25 8.5 18.25ZM18.25 24.25H14.5C14.3011 24.25 14.1103 24.329 13.9697 24.4697C13.829 24.6103 13.75 24.8011 13.75 25C13.75 25.1989 13.829 25.3897 13.9697 25.5303C14.1103 25.671 14.3011 25.75 14.5 25.75H18.25C18.4489 25.75 18.6397 25.671 18.7803 25.5303C18.921 25.3897 19 25.1989 19 25C19 24.8011 18.921 24.6103 18.7803 24.4697C18.6397 24.329 18.4489 24.25 18.25 24.25Z" fill="black"/>
</svg>
