<svg width="24" height="24" viewBox="0 0 24 24" fill="none" xmlns="http://www.w3.org/2000/svg">
	<path fill-rule="evenodd" clip-rule="evenodd" d="M17.0745 2.36003L17.4255 1.9244C17.4428 1.90286 17.4732 1.89703 17.4973 1.91062C17.5214 1.9242 17.5321 1.95322 17.5226 1.9792L17.1786 2.92495L17.1057 3.563L17.2515 4.23741L17.6078 4.88343L18.1787 5.48649L19.1046 6.15503L19.7461 6.51558L20.0649 6.51112L19.8535 6.07884L19.8533 6.07847L19.8531 6.07799L19.8529 6.07758L19.8527 6.07715L19.8525 6.07669L19.4794 5.23017L19.4791 5.22937L19.0391 4.18779L19.039 4.1875L19.0387 4.1867L19.0384 4.18604L19.0382 4.18537L19.0379 4.18461L19.0375 4.18354L19.0373 4.18293L18.7647 3.32578C18.7641 3.32411 18.7636 3.32241 18.7632 3.32069L18.7631 3.32016L18.763 3.31954L18.7629 3.31895L18.7628 3.3184L18.7626 3.31769C18.7625 3.31714 18.7624 3.31657 18.7624 3.31601L18.5731 2.06884C18.5688 2.0403 18.5866 2.01307 18.6145 2.00569C18.6425 1.99831 18.6714 2.01315 18.6818 2.0401L18.9928 2.85101L19.4255 3.73892L19.8751 4.57153L20.4085 5.40524L20.4088 5.4056L20.4092 5.40633L20.7767 6.00365L21.2266 5.64866C21.2463 5.63315 21.2738 5.63241 21.2942 5.64687C21.3147 5.66132 21.3232 5.68751 21.3152 5.71123L21.0355 6.53524L21.5303 7.12717C21.5305 7.12741 21.5307 7.12766 21.5309 7.12792L21.5313 7.12839L21.5317 7.12899L21.5322 7.1296L21.5326 7.13018L21.5331 7.13091L21.5337 7.13166L21.5342 7.13242L21.5347 7.13319L21.5352 7.13397C21.5353 7.13423 21.5355 7.13449 21.5356 7.13476L21.5361 7.13554L21.5365 7.13634L21.5367 7.13672C21.5372 7.13755 21.5376 7.13839 21.538 7.13923L21.5382 7.13958L21.5386 7.1404L21.5389 7.14123L21.5393 7.14207C21.5394 7.14234 21.5395 7.14263 21.5396 7.14291L21.5399 7.14374L21.5402 7.1446L21.5405 7.14545L21.5408 7.14635L21.5411 7.14716L21.5413 7.14786L21.5415 7.14858L21.5417 7.14933L21.5419 7.15007L21.542 7.15069C21.5422 7.15125 21.5423 7.15181 21.5424 7.15239L21.5425 7.15305L21.5427 7.15381L21.5428 7.15457L21.5429 7.15533L21.543 7.15609L21.5431 7.15685L21.5432 7.15773L21.5433 7.15863L21.5434 7.15953L21.5434 7.16043L21.5434 7.16071L21.6106 8.51554L23.1377 9.76546L23.1383 9.76595L23.139 9.76655L23.1397 9.76715L23.1404 9.76776L23.141 9.76838L23.1417 9.76901L23.1423 9.76965L23.143 9.7703L23.1432 9.77058L23.1436 9.77096L23.1438 9.77126L23.1442 9.77163L23.1445 9.77195L23.1448 9.77231L23.1451 9.77265L23.1453 9.77299L23.1457 9.77337L23.1459 9.77368L23.1462 9.77409L23.1468 9.77481L23.1474 9.77555L23.1479 9.7763L23.1484 9.77704L23.149 9.77781L23.1495 9.77857L23.15 9.77935L23.1504 9.78014L23.1509 9.78093L23.1513 9.78172L23.1518 9.7826L23.1522 9.78338L23.1526 9.78415C23.1528 9.78442 23.1529 9.7847 23.153 9.78498L23.1534 9.7858L23.1538 9.78664L23.1541 9.78748L23.1545 9.78832L23.1548 9.78918L23.1551 9.79003L23.1554 9.79073L23.1557 9.79157L23.1559 9.79242L23.1562 9.79327L23.1564 9.79414L23.1567 9.79499L23.1569 9.79586L23.1571 9.79672L23.1573 9.7976L23.1574 9.79847L23.1576 9.79935L23.1577 9.79976L23.1578 9.80024L23.1578 9.80065L23.1579 9.80112L23.158 9.80157L23.158 9.80201L23.1581 9.80248L23.1581 9.80289L23.1582 9.80339L23.1582 9.80379L23.1583 9.80431L23.1583 9.80523L23.1584 9.80615L23.1584 9.80708L23.1585 9.808L23.1585 9.80893V9.80985L23.1585 9.81078L23.1584 9.81171L23.1584 9.81264L23.1583 9.81357L23.1582 9.8145L23.1582 9.81466L23.0874 10.5471L23.0874 10.5474L23.0873 10.5479L23.0872 10.5485L23.0872 10.5488L23.0871 10.5495L23.087 10.5505L23.0868 10.5515L23.0866 10.5525L23.0864 10.5535L23.0863 10.5541L23.0862 10.5545L23.0859 10.5555L23.0857 10.5565L23.0854 10.5575C23.0853 10.5578 23.0852 10.5581 23.0851 10.5584L23.0848 10.5594L23.0845 10.5603L23.0841 10.5613L23.0838 10.5622L23.0836 10.5626C23.0832 10.5636 23.0828 10.5645 23.0824 10.5655L23.0822 10.5659L23.0817 10.5668L23.0813 10.5677L23.0808 10.5686L23.0806 10.569C23.0803 10.5696 23.0799 10.5701 23.0796 10.5707L23.0793 10.5712L23.0789 10.5718L23.0788 10.572L23.0785 10.5725L23.0782 10.5729L23.078 10.5732L23.0777 10.5737L23.0775 10.5739L23.077 10.5747L23.0765 10.5753L23.0759 10.5761L23.0754 10.5767L23.0749 10.5774L23.0743 10.5781L23.0738 10.5787L23.0732 10.5794L23.0726 10.58L23.072 10.5807L23.0713 10.5814L23.0708 10.5819L23.0701 10.5825L23.0699 10.5827L23.0695 10.5831L23.0692 10.5834L23.0688 10.5837L23.0684 10.5841L23.0677 10.5847L23.0669 10.5854C23.0666 10.5856 23.0664 10.5858 23.0661 10.586L23.0653 10.5866L23.0645 10.5872L23.0637 10.5878L23.0629 10.5884L23.0625 10.5886C23.0613 10.5894 23.0601 10.5902 23.0588 10.5909L23.0586 10.591L23.0577 10.5915L23.0568 10.592L23.0559 10.5925L23.0549 10.5929L23.054 10.5933L23.0532 10.5937L23.0524 10.594L23.0516 10.5943L23.0507 10.5946L23.0499 10.5949L22.1403 10.9205C22.1333 10.9231 22.1258 10.9243 22.1181 10.924H22.1181C22.1175 10.924 22.1169 10.924 22.1163 10.9239L22.1158 10.9239L22.1152 10.9238L22.1144 10.9237L19.3861 10.6352L18.2475 11.6137L16.7879 13.3487L16.0559 14.8842L16.3223 16.1185L17.2058 16.5996L17.2065 16.6L17.2074 16.6005L17.2083 16.601L17.2087 16.6013L17.2092 16.6016L17.2097 16.6019L17.2101 16.6022L17.2106 16.6025L17.211 16.6028L17.2115 16.6031L17.2118 16.6034L17.2124 16.6038L17.2127 16.604L17.2133 16.6045L17.2135 16.6046L17.2142 16.6051L17.215 16.6058L17.2158 16.6066L17.2167 16.6073L17.2168 16.6074C17.2202 16.6105 17.2233 16.6141 17.2258 16.6179L17.2259 16.618L17.2265 16.6189L17.2265 16.619L17.9762 17.7938L19.0802 19.0005L20.0748 19.8383L20.0754 19.8388L20.0759 19.8392C20.0762 19.8395 20.0764 19.8397 20.0767 19.8399L20.0772 19.8404L20.0778 19.8409L20.0783 19.8415L20.0789 19.842L20.0791 19.8423L20.0796 19.8428C20.0801 19.8433 20.0805 19.8438 20.081 19.8443L20.0811 19.8444C20.082 19.8454 20.0829 19.8465 20.0837 19.8477L20.8529 20.8558C20.8543 20.8575 20.8555 20.8594 20.8567 20.8613C20.857 20.8617 20.8573 20.8622 20.8575 20.8627L20.8577 20.863C20.8582 20.8638 20.8587 20.8647 20.8591 20.8656L21.4214 21.9775C21.4277 21.9898 21.4292 22.004 21.4257 22.0173L21.4122 22.0692L21.9563 22.4817L21.9567 22.4821L21.9571 22.4824L21.9575 22.4826L21.9582 22.4832L21.9589 22.4838L21.9596 22.4845L21.9603 22.4851L21.961 22.4858L21.9617 22.4864L21.9624 22.4871L21.9631 22.4878L21.9638 22.4885L21.9644 22.4893L21.9651 22.49L21.9652 22.4901L23.1601 23.8734C23.1769 23.8928 23.1785 23.9211 23.164 23.9423C23.1495 23.9635 23.1226 23.9723 23.0984 23.9637L21.6423 23.4468L21.6414 23.4464L21.6409 23.4462L21.6405 23.4461C21.6299 23.4419 21.6211 23.4348 21.615 23.4261L21.2065 22.8575L21.1764 22.9728C21.1762 22.9735 21.176 22.9743 21.1758 22.975L21.1757 22.9753L21.1754 22.9764L21.175 22.9774L21.175 22.9775C21.1724 22.985 21.1682 22.9917 21.163 22.9974L21.1625 22.9979L21.1622 22.9983L21.1616 22.9988C21.1588 23.0017 21.1556 23.0042 21.1521 23.0065L21.1516 23.0068L21.151 23.0072L21.1505 23.0075C21.1502 23.0076 21.15 23.0078 21.1497 23.008L21.1496 23.008C21.1433 23.0116 21.1363 23.014 21.129 23.015C21.1286 23.015 21.1282 23.0151 21.1278 23.0151L21.1273 23.0152L21.1267 23.0152L21.1256 23.0153L21.1245 23.0154L21.1234 23.0154L21.1222 23.0154H21.1211L21.12 23.0154L21.1189 23.0154L21.1177 23.0153L21.1166 23.0152L21.1165 23.0152C21.1085 23.0145 21.101 23.0121 21.0943 23.0084L21.0933 23.0079L21.0923 23.0073L21.0916 23.0068C21.0891 23.0053 21.0868 23.0036 21.0845 23.0016L21.0841 23.0012L21.0832 23.0004L21.0827 23L21.0824 22.9996L21.0819 22.9992L21.0815 22.9988C21.0813 22.9985 21.081 22.9983 21.0808 22.998L21.0807 22.998C21.0801 22.9973 21.0795 22.9967 21.079 22.996L19.7123 21.4439L18.0516 19.8595L16.7878 18.7577L16.7878 18.7577C16.7873 18.7572 16.7867 18.7567 16.7862 18.7563L16.7857 18.7558L14.9584 17.0373L12.235 15.8794C12.2337 15.8793 12.2324 15.8792 12.2311 15.879L9.1573 15.456L9.0698 15.5116L9.06253 15.9437L9.36245 16.4551L9.36265 16.4555L9.36304 16.4562L9.36342 16.4569L9.36377 16.4575L9.36416 16.4583L9.36456 16.4591L9.36494 16.4599L9.36531 16.4607L9.36566 16.4615L9.36601 16.4623L9.36633 16.4632L9.36643 16.4634C9.36679 16.4643 9.36712 16.4653 9.36743 16.4662L9.36752 16.4665L9.36778 16.4673L9.36803 16.4682L9.36826 16.469L9.36849 16.4699L9.3687 16.4707L9.36889 16.4716C9.36895 16.4719 9.36901 16.4721 9.36908 16.4724L9.36924 16.4733L9.3694 16.4741L9.36949 16.4747L9.36962 16.4755L9.36972 16.4763L9.36983 16.4771L9.36991 16.4779L9.36999 16.4787L9.37004 16.4794C9.37011 16.4802 9.37016 16.4811 9.37019 16.4819L9.3702 16.4826L9.37022 16.4834V16.4842L9.3702 16.485L9.37018 16.4858L9.37015 16.4866L9.3701 16.4874L9.37004 16.4882L9.36997 16.489L9.36994 16.4893C9.36989 16.4898 9.36985 16.4903 9.36978 16.4907L9.33435 16.7799C9.33181 16.8007 9.31797 16.8184 9.29841 16.8259C9.27884 16.8333 9.25675 16.8294 9.24099 16.8156L8.95189 16.5622L8.22802 16.0029L8.22766 16.0026L8.22714 16.0022L8.22661 16.0017L8.22597 16.0012L8.22535 16.0007L8.22457 16L8.22415 15.9996L8.22375 15.9992L8.22351 15.999L8.22295 15.9984L8.22216 15.9977L8.22139 15.9968L8.22064 15.996L8.22039 15.9958L8.21991 15.9952L8.21965 15.9949L8.21919 15.9944L8.21893 15.994L8.21849 15.9935L8.21823 15.9932L8.21781 15.9927L8.21753 15.9923L8.21716 15.9918L8.21686 15.9914L8.21651 15.9909L8.2162 15.9904L8.21589 15.99L8.21556 15.9895L8.21528 15.9891L8.21494 15.9886L8.21434 15.9876L8.21376 15.9866L8.21319 15.9856L8.21265 15.9846L8.21253 15.9844C8.21196 15.9833 8.21143 15.9822 8.21094 15.9811L8.21066 15.9805L8.21022 15.9794L8.20993 15.9787L8.20979 15.9783L8.20963 15.9779L8.20935 15.9771L8.20908 15.9764L8.20881 15.9755L8.20864 15.975L8.20842 15.9743L8.2083 15.9739L8.20809 15.9731L8.0088 15.2505L6.84701 14.7835L5.66224 14.5898L5.66129 14.5897L5.66037 14.5895L5.65961 14.5893C5.65923 14.5893 5.65886 14.5892 5.65848 14.5891L5.65764 14.5889L5.65673 14.5887L5.65624 14.5885L5.65583 14.5884L5.65512 14.5882L5.65486 14.5881C5.65261 14.5875 5.65042 14.5867 5.6483 14.5857L3.48341 13.6558L3.48272 13.6555L3.48232 13.6553L3.48187 13.6551L3.481 13.6547C3.47446 13.6515 3.46873 13.6472 3.46402 13.642L3.4637 13.6417L3.46294 13.6408L3.46262 13.6404L3.4622 13.64L3.46148 13.6391L3.46079 13.6382C3.46056 13.6379 3.46033 13.6376 3.4601 13.6373L3.45945 13.6363L3.45899 13.6357L3.4588 13.6354L3.45843 13.6348L3.45817 13.6344L3.45788 13.634L3.45757 13.6335L3.45735 13.6331L3.45699 13.6325L3.45685 13.6323L3.4564 13.6315C3.45604 13.6308 3.45569 13.6302 3.45535 13.6295L3.45496 13.6288L3.45454 13.6279L3.45412 13.627L3.45372 13.6261L3.45334 13.6252L3.45301 13.6243C3.45288 13.624 3.45276 13.6236 3.45263 13.6233L3.45231 13.6224L3.45224 13.6222L3.452 13.6215L3.45188 13.6211L3.4517 13.6205L3.45154 13.62L3.45123 13.6189L3.45115 13.6186C3.4494 13.6122 3.44878 13.6054 3.44943 13.5985L3.44946 13.5983L3.44955 13.5975L3.4496 13.597L3.44966 13.5965L3.4498 13.5955L3.44995 13.5946L3.45011 13.5936L3.4503 13.5926L3.45038 13.5923L3.4505 13.5917L3.45063 13.5912L3.45073 13.5907L3.45097 13.5897C3.45138 13.5882 3.45184 13.5866 3.45238 13.5851L3.4524 13.585C3.45366 13.5814 3.45528 13.578 3.4572 13.5748L4.07718 12.5209L3.57384 11.7414L2.93535 13.0079L3.41454 13.7744L5.6252 14.8408C5.62997 14.843 5.63448 14.8458 5.63861 14.8494L5.63883 14.8496L5.63926 14.85L5.63989 14.8505L5.64053 14.8511L5.64115 14.8517L5.64138 14.852L6.40472 15.604C6.40786 15.6069 6.41068 15.6103 6.4131 15.614L6.41327 15.6143L6.41375 15.6151L6.41432 15.616L6.41435 15.616C6.41523 15.6175 6.41604 15.619 6.41678 15.6206L6.75534 16.3078L6.7555 16.3081L6.75561 16.3083L7.20673 17.2263C7.21714 17.2475 7.21331 17.2729 7.19715 17.2901C7.18099 17.3072 7.15587 17.3125 7.13412 17.3034L5.97806 16.8185C5.96795 16.8144 5.95893 16.8073 5.95243 16.7976L5.95214 16.7972L5.95175 16.7966L5.95135 16.796L5.52354 16.1086L5.26826 16.0475L5.26757 16.0474L5.26701 16.0472L5.26642 16.047L5.26586 16.0469C5.26015 16.0453 5.25484 16.0428 5.25006 16.0396L5.24962 16.0393L5.24917 16.039C5.24339 16.035 5.2383 16.0299 5.23425 16.0238L5.23391 16.0233L5.23361 16.0229L5.23325 16.0223L5.23301 16.0219L5.23292 16.0218L4.9232 15.5098L2.78676 14.3114C2.7864 14.3112 2.78606 14.311 2.7857 14.3108L2.78499 14.3104L2.78415 14.3099L2.78333 14.3094L2.78277 14.309L2.78222 14.3086L2.78138 14.3081L2.78056 14.3075L2.77974 14.3068L2.77894 14.3062L1.50342 13.3073L1.50299 13.307L1.50231 13.3064L1.50164 13.3058L1.501 13.3053L1.50025 13.3046L1.4995 13.3039L1.49876 13.3032L1.49803 13.3025L1.49732 13.3018L1.49715 13.3016C1.49615 13.3005 1.49519 13.2994 1.49429 13.2983L1.49399 13.2979L1.49337 13.2971L1.49312 13.2968C1.49247 13.2959 1.49184 13.295 1.49123 13.2941L1.49103 13.2938L1.49049 13.293L1.4902 13.2925L1.48996 13.2921L1.48945 13.2913L1.48895 13.2904L1.48847 13.2895L1.48801 13.2887L1.48768 13.288L1.4873 13.2872L1.48693 13.2864L1.48657 13.2857L1.48623 13.2849L1.48591 13.2841L1.48555 13.2832L1.48527 13.2825L1.48497 13.2816L1.4847 13.2808L1.48454 13.2804L1.48442 13.28L1.48417 13.2792L1.48394 13.2784L1.48369 13.2775L1.48343 13.2765L1.48327 13.2759L1.48319 13.2755L1.48308 13.275L1.48297 13.2746L1.48278 13.2736L1.4826 13.2726L1.48243 13.2716L1.48229 13.2706L1.48215 13.2696L1.48204 13.2686L1.48194 13.2676L1.48191 13.2672C1.48183 13.2661 1.48177 13.265 1.48174 13.264V13.2636L1.48173 13.2626L1.48174 13.2616L1.48178 13.2606L1.48183 13.2596C1.48185 13.2592 1.48187 13.2589 1.48189 13.2585L1.48197 13.2575L1.48209 13.2565L1.48215 13.256L1.4822 13.2555L1.48235 13.2545L1.4825 13.2535L1.48269 13.2524L1.48284 13.2517L1.48302 13.2508L1.80416 11.7699L0.940274 10.0452L0.940009 10.0447L0.939756 10.0441L0.939503 10.0436L0.939136 10.0428L0.939021 10.0425L0.938837 10.0421C0.938446 10.0412 0.938078 10.0403 0.937745 10.0393L0.937515 10.0387L0.937331 10.0382C0.935745 10.0335 0.934791 10.0288 0.934434 10.024L0.792733 8.33885C0.792572 8.33711 0.79248 8.33537 0.79248 8.33363V8.3335L0.792492 8.3324L0.792515 8.33126L0.792549 8.33066C0.792676 8.32803 0.792986 8.32545 0.793469 8.32289L0.793572 8.32232L0.793802 8.32123L0.794055 8.32014L0.79409 8.32001C0.796446 8.31029 0.801412 8.3011 0.808871 8.2936L0.809239 8.29323L0.809446 8.29302C0.810366 8.29211 0.811331 8.29124 0.81232 8.29039L3.96547 5.53881C3.9797 5.5264 3.99919 5.52191 4.01742 5.52685L7.13227 6.37122C7.13725 6.37224 7.14203 6.37393 7.1465 6.3762L9.02856 7.17218C9.03896 7.17657 9.04781 7.18399 9.05396 7.19346L9.72823 8.23184L14.3483 10.2371L14.4846 10.2219L16.2458 9.3774L17.9589 7.75263L18.6468 7.06815L17.9945 6.39068L17.9943 6.3904L17.9937 6.38981L17.9931 6.38909L17.9926 6.38857L17.9924 6.38832L17.246 5.52707L17.2456 5.52657L17.2452 5.52619L17.2446 5.52543C17.2444 5.52517 17.2442 5.52491 17.244 5.52465L17.2434 5.52386L17.2428 5.52307L17.2422 5.52225L17.2419 5.52186L17.2416 5.52142L17.2413 5.521L17.2411 5.5206L17.2408 5.52012L17.2402 5.51924L17.2397 5.51835L17.2392 5.51746L17.239 5.51714C17.2385 5.51619 17.238 5.51525 17.2375 5.5143L16.7818 4.57216L16.7816 4.57181L16.7812 4.57097L16.7808 4.57012L16.7805 4.56926L16.7801 4.5684L16.7798 4.56754L16.7796 4.56697L16.7793 4.56625L16.7791 4.56578L16.7788 4.56486L16.7785 4.56379L16.7782 4.56273L16.7779 4.56166L16.7778 4.56116C16.7772 4.55888 16.7768 4.5566 16.7765 4.5543L16.6843 3.83853C16.6842 3.83763 16.6841 3.83672 16.684 3.83581L16.684 3.83515L16.6839 3.83409L16.6839 3.83303L16.6838 3.83264L16.6838 3.83197V3.83154V3.83091V3.83045L16.6838 3.82934L16.6839 3.82872C16.6839 3.82746 16.684 3.8262 16.6841 3.82496L16.7519 3.11772L16.7519 3.11701L16.752 3.11645C16.7522 3.11406 16.7527 3.11168 16.7532 3.10931L16.7533 3.10918L16.7535 3.10815L16.7536 3.10792C16.7541 3.10602 16.7547 3.10417 16.7554 3.10235L16.7556 3.10171L16.7561 3.10066L16.7564 3.09985L17.0661 2.37396L17.0663 2.37339L17.0666 2.37281L17.0668 2.37225L17.0671 2.37169L17.0672 2.37142C17.0692 2.36728 17.0717 2.36347 17.0745 2.36003V2.36003ZM21.7308 23.3582L22.9348 23.7856L21.9467 22.6417L21.7308 23.3582V23.3582ZM21.2757 22.7601L21.6401 23.2673L21.8388 22.608L21.2757 22.7601V22.7601ZM21.0369 22.7772L20.7641 20.9753L19.8446 21.4231L21.0369 22.7772ZM21.1363 22.6785L21.3109 22.0095L20.9171 21.2309L21.1363 22.6785V22.6785ZM21.7963 22.5024L21.3812 22.1877L21.2614 22.6468L21.7963 22.5024ZM19.7637 21.3367L20.6682 20.8962L18.338 19.9765L19.7637 21.3367ZM20.0099 19.9374L18.4141 19.8849L20.6403 20.7636L20.0099 19.9374V19.9374ZM19.0404 19.1148L18.2423 19.7661L19.8774 19.8198L19.0404 19.1148ZM18.0007 17.988L18.1375 19.7057L18.9589 19.0354L18.0007 17.988ZM16.913 18.7168L18.0223 19.6839L17.8833 17.9392L16.913 18.7168V18.7168ZM16.9057 18.5777L17.8563 17.816L17.2098 16.803L16.9057 18.5777ZM16.7313 18.5494L15.9763 15.0512L15.0586 16.9763L16.7313 18.5494ZM16.3538 16.2644L16.8185 18.4174L17.1162 16.6796L16.3538 16.2644V16.2644ZM6.68139 16.4137L6.12288 16.7566L7.03869 17.1408L6.68139 16.4137V16.4137ZM16.6286 13.4202L12.6252 14.9264L14.9702 16.8989L16.6286 13.4202ZM12.5443 15.006L12.3085 15.7878L14.6645 16.7895L12.5443 15.006V15.006ZM6.01765 16.6885L6.55881 16.3562L5.68002 16.146L6.01765 16.6885V16.6885ZM9.24891 16.5476L9.12215 16.5611L9.23512 16.6601L9.24891 16.5476V16.5476ZM9.04642 16.4554L9.22062 16.4368L9.05599 16.1561L9.04642 16.4554ZM8.94737 16.0151L8.42838 16.0148L8.93486 16.4062L8.94737 16.0151V16.0151ZM6.60081 16.25L6.33656 15.7136L5.49125 15.9846L6.60081 16.25V16.25ZM5.30656 15.925L6.10533 15.669L5.07273 15.5385L5.30656 15.925V15.925ZM8.95549 15.5844L8.45662 15.9017L8.95015 15.9021L8.95549 15.5844ZM8.99078 15.4279L8.13407 15.2794L8.29676 15.8694L8.99078 15.4279ZM12.4432 14.9495L8.49757 14.0755L9.18063 15.345L12.1986 15.7604L12.4432 14.9495ZM5.6 14.9699L5.0933 15.4271L6.20693 15.5678L5.6 14.9699V14.9699ZM3.63479 14.0062L4.96662 15.3891L5.50137 14.9066L3.63479 14.0062V14.0062ZM8.12686 15.1634L9.03958 15.3216L8.40639 14.145L8.12686 15.1634V15.1634ZM4.65735 15.231L3.37011 13.8944L2.91546 14.254L4.65735 15.231ZM6.94032 14.6991L7.93993 15.1009L7.34457 13.8911L6.94032 14.6991V14.6991ZM7.4476 13.8444L8.04079 15.0498L8.31903 14.036L7.4476 13.8444ZM6.62765 12.0457L5.62054 13.3223L8.39709 13.9374C8.39846 13.9376 8.39984 13.9378 8.40122 13.9381L12.3665 14.8166L9.1614 10.9397L6.62765 12.0457V12.0457ZM14.5134 10.3901L12.6192 14.8078L16.6502 13.2913L14.5134 10.3901V10.3901ZM14.35 10.3507C14.3484 10.351 14.3468 10.3512 14.3452 10.3514L13.782 10.4141L9.28807 10.9154L12.4995 14.8L14.4101 10.344L14.35 10.3507V10.3507ZM6.70112 14.6451L5.59695 13.5187L5.7217 14.485L6.70112 14.6451V14.6451ZM6.84719 14.6325L7.26201 13.8034L5.69304 13.4552L6.84719 14.6325V14.6325ZM5.4704 13.4216L3.72066 13.6347L5.60226 14.4429L5.4704 13.4216V13.4216ZM2.81085 13.0797L1.67133 13.2952L2.76263 14.1498L2.81085 13.0797V13.0797ZM2.91885 13.1948L2.87623 14.1408L3.30049 13.8053L2.91885 13.1948ZM5.35093 13.3223L4.16318 12.5977L3.61247 13.5339L5.35093 13.3223ZM4.23173 12.5071L5.45416 13.2528L5.30222 11.3396L4.23173 12.5071ZM5.56522 13.2099L6.50896 12.0135L5.41376 11.3145L5.56522 13.2099ZM2.76724 12.9728L1.89384 11.8899L1.61161 13.1914L2.76724 12.9728ZM16.3554 9.59519L16.7807 13.1816L18.1322 11.575L16.3554 9.59519V9.59519ZM16.2314 9.50972L14.5863 10.2985L16.6586 13.1121L16.2314 9.50972V9.50972ZM3.47176 11.6927L1.97491 11.8104L2.85947 12.9071L3.47176 11.6927V11.6927ZM3.65886 11.6647L4.15133 12.4274L5.18215 11.3031L3.65886 11.6647V11.6647ZM7.1266 6.57368L7.06574 6.73773L5.41719 11.1825L6.59701 11.9356L9.10216 10.8422L7.1266 6.57368V6.57368ZM3.39194 11.5855L1.13135 10.1743L1.89709 11.703L3.39194 11.5855ZM7.04626 6.4651L4.01697 5.64392L0.927584 8.33986L3.58849 11.565L5.17253 11.1891L5.30579 11.1575L6.95973 6.6984L7.04626 6.4651ZM19.2583 10.596L16.4738 9.55783L18.2123 11.4948L19.2583 10.596ZM1.04477 9.98689L3.30295 11.3966L0.920492 8.50892L1.04477 9.98689V9.98689ZM22.0761 10.806L22.2131 10.1901L19.8038 10.5657L22.0761 10.806ZM9.26868 10.8038L12.3755 10.457L9.77624 9.63926L9.26868 10.8038ZM22.8956 10.5301L22.325 10.2081L22.1978 10.7798L22.8956 10.5301V10.5301ZM8.19845 8.59991L9.1765 10.7324L9.68773 9.55942L9.63634 8.34394L8.19845 8.59991ZM19.4854 8.45215L19.4263 10.5101L22.1268 10.0891L19.4854 8.45215V8.45215ZM16.383 9.40324L19.2543 10.4738L17.9815 7.88708L16.383 9.40324V9.40324ZM23.0369 9.89469L22.4189 10.1313L22.9832 10.4497L23.0369 9.89469ZM12.6537 10.4259L13.7694 10.3017L13.9156 10.2854L10.4879 9.74456L12.6537 10.4259ZM19.3179 10.3468L19.374 8.39056L18.1133 7.89873L19.3179 10.3468V10.3468ZM9.7993 9.52142L13.9095 10.1699L9.75039 8.36474L9.7993 9.52142V9.52142ZM21.713 8.74543L22.3156 10.0497L22.9908 9.79126L21.713 8.74543V8.74543ZM19.6581 8.42612L22.1558 9.97396L21.5062 8.57172L21.5015 8.56506L19.6581 8.42612V8.42612ZM8.14949 8.49377L9.5963 8.2362L8.96864 7.2696L7.23464 6.53625L8.14949 8.49377V8.49377ZM19.6144 8.30942L21.4178 8.44533L20.703 7.42343L20.6951 7.41229L19.6144 8.30942ZM20.8016 7.36706L21.4886 8.33734L21.4338 7.23264L20.8016 7.36706V7.36706ZM19.2468 7.40153L18.1591 7.79519L19.3629 8.26481L19.2468 7.40153ZM19.4754 8.24439L20.5382 7.38602L19.3598 7.38579L19.4754 8.24439ZM18.2193 7.65311L19.1376 7.32079L18.7342 7.14074L18.2193 7.65311V7.65311ZM19.4441 7.27271L20.5957 7.27294L20.1457 6.6502L19.4441 7.27271ZM19.5874 6.70945L18.8694 7.07563L19.2734 7.25384L19.5874 6.70945ZM20.7918 7.25353L21.3834 7.12774L20.993 6.66065L20.7918 7.25353V7.25353ZM21.1468 5.85579L20.2325 6.57725L20.6879 7.20759L21.1468 5.85579V5.85579ZM19.7646 6.62843L19.5181 7.05585L20.0036 6.6251L19.7646 6.62843V6.62843ZM18.1525 6.39168L18.7158 6.97671L18.9868 6.27238L18.1525 6.39168ZM19.1035 6.28409L18.8424 6.96248L19.612 6.56993L19.1035 6.28409V6.28409ZM20.1749 6.47863L20.6066 6.13795L19.9967 6.11418L20.1749 6.47863ZM18.1008 6.28484L18.9275 6.16662L18.1853 5.63068L18.1008 6.28484V6.28484ZM18.0775 5.58289L17.4176 5.55239L17.9953 6.21896L18.0775 5.58289ZM20.3567 5.53669L20.0133 6.00165L20.6583 6.02679L20.3567 5.53669V5.53669ZM19.9168 5.94201L20.2666 5.4684L19.631 5.29346L19.9168 5.94201ZM17.3763 5.43726L18.0039 5.46628L17.5774 5.01576L17.3763 5.43726V5.43726ZM17.487 4.94256L16.9565 4.6737L17.2882 5.35926L17.487 4.94256ZM19.6118 5.17091L20.234 5.34214L19.8331 4.71569L19.6118 5.17091ZM19.21 4.30166L19.5348 5.07063L19.7527 4.62241L19.21 4.30166V4.30166ZM17.4237 4.78368L17.1809 4.34333L16.937 4.53699L17.4237 4.78368ZM19.1729 4.14835L19.6799 4.44802L19.3688 3.87174L19.1729 4.14835V4.14835ZM16.876 4.44099L17.1115 4.25404L16.8165 3.97915L16.876 4.44099ZM16.8252 3.83263L17.1047 4.09316L17.0133 3.6707L16.8252 3.83263V3.83263ZM19.2987 3.77508L18.9302 3.4728L19.1107 4.04048L19.2987 3.77508ZM16.9771 3.55271L16.8469 3.31248L16.8101 3.6964L16.9771 3.55271V3.55271ZM18.8829 3.28777L19.2111 3.557L18.9551 3.03166L18.8829 3.28777V3.28777ZM17.0532 3.02677L16.8825 3.14096L17.0127 3.38118L17.0532 3.02677ZM18.835 3.04078L18.8814 2.8763L18.7634 2.56842L18.835 3.04078V3.04078ZM16.9348 2.96992L17.0664 2.88191L17.0643 2.66646L16.9348 2.96992V2.96992ZM17.1749 2.41586L17.1767 2.59966L17.3001 2.26038L17.1749 2.41586V2.41586Z" fill="currentColor" />
	<path fill-rule="evenodd" clip-rule="evenodd" d="M13.1604 0.0205078L16.8653 8.87588L16.3055 9.40925L14.6159 10.2106L11.8181 3.52328L5.45904 20.1173H2.65125L10.3526 0.0205193H13.1604V0.0205078Z" fill="currentColor" />
	<path fill-rule="evenodd" clip-rule="evenodd" d="M17.549 17.2211L16.298 14.231L16.7072 13.3034L18.0588 11.7285L21.57 20.1208H20.2187L20.0461 19.8932L19.0374 19.0376L17.9386 17.8263L17.549 17.2211Z" fill="currentColor" />
</svg>
