<svg width="24" height="24" viewBox="0 0 24 24" fill="none" xmlns="http://www.w3.org/2000/svg">
	<g clip-path="url(#clip0_447_362)">
		<path fill-rule="evenodd" clip-rule="evenodd" d="M12.0003 0.600586C12.663 0.600586 13.2003 1.13784 13.2003 1.80057V3.00055C13.2003 3.66328 12.663 4.20053 12.0003 4.20053C11.3375 4.20053 10.8003 3.66328 10.8003 3.00055V1.80057C10.8003 1.13784 11.3375 0.600586 12.0003 0.600586ZM20.4855 4.1152C20.9541 4.58383 20.9541 5.34358 20.4855 5.81225L19.6371 6.66063C19.1684 7.12923 18.4086 7.12923 17.94 6.66063C17.4714 6.19197 17.4714 5.43223 17.94 4.96356L18.7884 4.1152C19.2571 3.64658 20.0168 3.64659 20.4855 4.1152ZM12.0003 9.00045C11.0455 9.00045 10.1298 9.37972 9.45477 10.0549C8.9861 10.5235 8.22637 10.5235 7.7577 10.0549C7.2891 9.58626 7.2891 8.82645 7.7577 8.35786C8.88291 7.23265 10.409 6.60049 12.0003 6.60049C13.5915 6.60049 15.1176 7.23265 16.2428 8.35786C17.368 9.48299 18.0002 11.0092 18.0002 12.6004C18.0002 14.1916 17.368 15.7178 16.2428 16.843C15.7742 17.3116 15.0144 17.3116 14.5458 16.843C14.0772 16.3743 14.0772 15.6146 14.5458 15.1459C15.221 14.4709 15.6002 13.5552 15.6002 12.6004C15.6002 11.6457 15.221 10.73 14.5458 10.0549C13.8707 9.37972 12.955 9.00045 12.0003 9.00045ZM20.4002 12.6004C20.4002 11.9377 20.9374 11.4004 21.6001 11.4004H22.8001C23.4628 11.4004 24.0001 11.9377 24.0001 12.6004C24.0001 13.2632 23.4628 13.8004 22.8001 13.8004H21.6001C20.9374 13.8004 20.4002 13.2632 20.4002 12.6004Z" fill="currentColor" fill-opacity="0.5" />
		<path fill-rule="evenodd" clip-rule="evenodd" d="M8.81529 0.951845C9.15548 1.29183 9.2598 1.80209 9.08033 2.24831C8.37827 3.99417 8.20479 5.90787 8.58144 7.75156C8.95808 9.59518 9.86827 11.2875 11.1989 12.6181C12.5295 13.9487 14.2218 14.8589 16.0654 15.2356C17.9091 15.6122 19.8228 15.4387 21.5687 14.7367C22.0148 14.5573 22.5248 14.6614 22.8648 15.0014C23.2048 15.3413 23.3091 15.8514 23.1299 16.2975C22.2365 18.5204 20.6984 20.4252 18.7134 21.7667C16.7285 23.1083 14.3875 23.8252 11.9917 23.8251H11.9904C9.20445 23.822 6.50621 22.85 4.35836 21.0756C2.21051 19.3011 0.746782 16.8348 0.218112 14.0994C-0.310559 11.364 0.128752 8.5299 1.46074 6.08291C2.79272 3.6359 4.93441 1.72844 7.51871 0.687519C7.9648 0.50783 8.47509 0.61186 8.81529 0.951845ZM6.09116 4.25386C5.06286 5.05723 4.20152 6.06761 3.56864 7.23032C2.50297 9.18801 2.1515 11.4555 2.57447 13.644C2.99744 15.8325 4.1685 17.8057 5.88692 19.2253C7.60533 20.645 9.7641 21.4227 11.9931 21.4251C13.9094 21.4249 15.7819 20.8514 17.3696 19.7783C18.2098 19.2105 18.9499 18.5165 19.5665 17.7254C18.2478 17.9005 16.9021 17.856 15.5851 17.5869C13.2805 17.1161 11.1651 15.9783 9.5019 14.3152C7.83865 12.6519 6.70088 10.5365 6.23005 8.23193C5.96121 6.916 5.91659 5.5715 6.09116 4.25386Z" fill="currentColor" />
	</g>
	<defs>
		<clipPath id="clip0_447_362">
			<rect width="24" height="24" fill="currentColor" />
		</clipPath>
	</defs>
</svg>
