<svg width="24" height="24" viewBox="0 0 24 24" fill="none" xmlns="http://www.w3.org/2000/svg">
	<path d="M20.9648 3.09375H10.4893C9.7609 3.09568 9.0627 3.38683 8.54693 3.90375C8.03117 4.42066 7.73965 5.12147 7.7359 5.85338H13.5037C13.9845 5.85127 14.461 5.94455 14.9059 6.12783C15.3507 6.31111 15.7551 6.58088 16.096 6.92156C16.4368 7.26225 16.7074 7.6672 16.8922 8.11317C17.077 8.55914 17.1723 9.03741 17.1727 9.52045V14.8682H18.0027L18.9809 16.5663C19.1699 16.8947 19.4789 16.897 19.6675 16.5663L20.6457 14.8645H20.9662C21.6953 14.8611 22.3936 14.5685 22.9092 14.0504C23.4246 13.5323 23.7156 12.8306 23.7187 12.098V5.8373C23.7187 4.31581 22.4791 3.09375 20.9648 3.09375Z" fill="currentColor" fill-opacity="0.5" />
	<path d="M13.5019 6.77345H3.03653C2.67511 6.77233 2.31702 6.84283 1.98279 6.98101C1.64855 7.1192 1.34475 7.32226 1.08878 7.57862C0.832814 7.83503 0.629723 8.13962 0.491152 8.47501C0.352578 8.8104 0.281248 9.16993 0.28125 9.53308V15.7712C0.281303 16.4942 0.562973 17.1886 1.06601 17.7056C1.56904 18.2226 2.25348 18.5213 2.9729 18.5378L4.0578 20.4235C4.24686 20.7519 4.55585 20.7565 4.74445 20.4277L5.82844 18.5479H13.5019C14.2335 18.5461 14.9346 18.2527 15.4511 17.7321C15.9676 17.2115 16.2576 16.5063 16.2572 15.7712V9.53308C16.2572 9.16993 16.1859 8.8104 16.0473 8.47501C15.9087 8.13962 15.7057 7.83503 15.4497 7.57862C15.1937 7.32226 14.8899 7.1192 14.5557 6.98101C14.2215 6.84283 13.8633 6.77233 13.5019 6.77345Z" fill="currentColor" />
</svg>
