<svg width="24" height="24" viewBox="0 0 24 24" fill="none" xmlns="http://www.w3.org/2000/svg">
	<g clip-path="url(#clip0_447_366)">
		<path d="M10.159 5.11853V5.11852C9.67942 4.29385 8.47714 4.2938 7.99746 5.11854L10.159 5.11853ZM10.159 5.11853L12.0898 8.43847L6.6864 17.7011C6.68638 17.7011 6.68637 17.7011 6.68636 17.7011C6.32823 18.3149 6.30967 18.9916 6.53111 19.5696H1.74974C0.784022 19.5696 0.193517 18.5369 0.668829 17.7195C0.668833 17.7195 0.668837 17.7195 0.668841 17.7195L7.99746 5.11854L10.159 5.11853Z" fill="currentColor" fill-opacity="0.5" />
		<path d="M15.235 7.63035C15.7915 6.68441 17.1828 6.68441 17.7393 7.63035L23.8044 17.9401C24.3609 18.8862 23.6652 20.0687 22.5521 20.0687H10.4221C9.30911 20.0687 8.61348 18.8862 9.16998 17.9401L15.235 7.63035Z" fill="currentColor" />
	</g>
	<defs>
		<clipPath id="clip0_447_366">
			<rect width="24" height="24" fill="currentColor" />
		</clipPath>
	</defs>
</svg>
