<svg width="24" height="24" viewBox="0 0 24 24" fill="none" xmlns="http://www.w3.org/2000/svg">
<g clip-path="url(#clip0_454_335)">
<path fill-rule="evenodd" clip-rule="evenodd" d="M11.0115 11.7953C12.6171 10.2655 12.1272 8.37354 10.673 6.08089C9.21888 3.78825 6.29166 2.9726 5.74556 3.49289C5.19947 4.01319 5.07843 7.73311 6.53259 10.0258C7.98675 12.3184 9.40593 13.3251 11.0115 11.7953Z" fill="white" fill-opacity="0.5"/>
<path fill-rule="evenodd" clip-rule="evenodd" d="M12.3999 12.0065C13.5877 13.8793 15.1758 13.1945 17.1414 11.3218C19.107 9.449 19.922 5.86163 19.518 5.22468C19.114 4.58772 16.0439 4.61966 14.0783 6.49241C12.1126 8.36516 11.2121 10.1338 12.3999 12.0065Z" fill="white" fill-opacity="0.5"/>
<path fill-rule="evenodd" clip-rule="evenodd" d="M11.7505 10.9769C13.7228 11.219 14.4985 9.39689 14.8601 6.45151C15.2218 3.50613 13.7309 0.393056 13.0601 0.310688C12.3893 0.228321 10.1356 2.88163 9.77392 5.82701C9.41228 8.77239 9.77812 10.7347 11.7505 10.9769Z" fill="white" fill-opacity="0.5"/>
<path fill-rule="evenodd" clip-rule="evenodd" d="M11.2538 24.0017C15.3891 24.0017 18.7427 22.8005 18.7427 17.3527C18.7427 11.905 15.3891 7.43457 11.2538 7.43457C7.11856 7.43457 3.76758 11.905 3.76758 17.3527C3.76758 22.8005 7.11856 24.0017 11.2538 24.0017Z" fill="white"/>
</g>
<defs>
<clipPath id="clip0_454_335">
<rect width="24" height="24" fill="white"/>
</clipPath>
</defs>
</svg>
