<svg width="24" height="24" viewBox="0 0 24 24" fill="none" xmlns="http://www.w3.org/2000/svg">
<path d="M18.5856 0V12.8358C18.5856 16.4232 15.6776 19.3311 12.0901 19.3311C8.50271 19.3311 5.59473 16.4232 5.59473 12.8358V0H10.1899V12.8358C10.1899 13.3397 10.3901 13.8231 10.7465 14.1794C11.1028 14.5358 11.5862 14.736 12.0901 14.736C12.5941 14.736 13.0775 14.5358 13.4338 14.1794C13.7902 13.8231 13.9904 13.3397 13.9904 12.8358V0H18.5856Z" fill="white" fill-opacity="0.5"/>
<path d="M23.1805 0V12.8358C23.1805 18.9609 18.2154 23.9277 12.0903 23.9277C5.96514 23.9277 1 18.9609 1 12.8357V0H5.59483V12.8358C5.59483 16.4232 8.50308 19.3311 12.0903 19.3311C15.6774 19.3311 18.5857 16.4232 18.5857 12.8358V0H23.1805Z" fill="white"/>
</svg>
